<?xml version="1.0" standalone="no"?>
<!DOCTYPE svg PUBLIC "-//W3C//DTD SVG 20010904//EN"
 "http://www.w3.org/TR/2001/REC-SVG-20010904/DTD/svg10.dtd">
<svg version="1.0" xmlns="http://www.w3.org/2000/svg"
 width="2000.000000pt" height="888.000000pt" viewBox="0 0 2000.000000 888.000000"
 preserveAspectRatio="xMidYMid meet">

<g transform="translate(0.000000,888.000000) scale(0.100000,-0.100000)"
fill="#000000" stroke="none">
<path d="M9541 8861 l-65 -6 -173 -205 c-168 -200 -172 -206 -165 -240 12 -58
6 -127 -13 -156 -16 -25 -21 -26 -69 -21 -28 4 -60 9 -71 12 -16 4 -62 -46
-252 -273 -127 -152 -318 -380 -424 -506 -163 -194 -188 -228 -163 -222 41 10
2033 625 2066 637 l26 11 -20 34 c-31 53 -20 109 30 154 58 52 129 75 237 75
108 -1 175 -21 233 -71 l41 -35 538 166 c296 92 542 170 546 174 4 4 -54 37
-130 73 -418 199 -884 325 -1423 383 -154 17 -640 27 -749 16z m693 -197 c29
-10 69 -36 98 -64 43 -42 48 -51 48 -91 0 -65 -35 -110 -114 -149 -158 -78
-394 -36 -466 83 -57 93 18 193 175 234 64 16 195 10 259 -13z m830 -138 c37
-15 76 -60 76 -87 0 -29 -46 -75 -88 -87 -93 -28 -207 -1 -235 55 -23 48 -8
81 52 113 44 23 147 26 195 6z m-1963 -649 c71 -48 35 -117 -65 -125 -67 -5
-100 2 -126 28 -26 26 -25 62 3 87 29 27 43 31 103 32 37 1 60 -5 85 -22z"/>
<path d="M11299 8193 l-526 -165 1 -92 c1 -105 -11 -155 -57 -222 -47 -71
-104 -107 -176 -112 -73 -5 -123 10 -172 55 -48 44 -77 90 -98 157 l-16 53
-990 -308 c-544 -170 -1024 -319 -1065 -332 l-75 -23 1 -134 c1 -105 4 -135
15 -138 28 -9 85 -79 97 -119 7 -22 12 -69 12 -103 0 -85 -17 -136 -62 -184
l-38 -39 11 -236 c6 -130 12 -241 14 -248 2 -6 17 -14 34 -18 84 -18 161 -123
161 -218 0 -27 -5 -67 -12 -89 -15 -52 -80 -124 -123 -138 -40 -13 -40 -13
-28 -204 l6 -108 26 6 c14 3 519 161 1121 351 602 191 1313 416 1580 500 267
84 585 185 708 224 123 39 226 71 229 71 6 0 -3 1185 -14 1678 -5 268 -8 302
-22 301 -9 -1 -253 -75 -542 -166z m141 -488 c24 -15 42 -69 37 -114 -4 -34
-13 -52 -36 -73 -44 -39 -84 -37 -127 6 -29 29 -34 41 -34 83 0 56 19 89 63
108 28 12 68 8 97 -10z m-1534 -310 c81 -40 124 -118 124 -224 0 -137 -119
-258 -232 -237 -19 3 -55 19 -80 35 -144 91 -129 354 24 430 56 28 103 27 164
-4z m1041 -160 c111 -33 207 -163 220 -298 6 -64 7 -67 32 -67 63 0 131 -80
131 -155 0 -48 -34 -110 -72 -133 -59 -37 -122 -28 -179 25 l-26 24 -38 -25
c-142 -97 -340 -35 -422 132 -26 52 -28 67 -28 167 0 100 2 115 27 161 35 66
70 107 115 135 81 50 152 60 240 34z m-1790 -467 c191 -89 190 -405 -1 -498
-166 -80 -356 54 -356 250 0 129 85 242 203 271 43 10 103 1 154 -23z m1025
-193 c43 -29 78 -97 78 -151 0 -48 -35 -121 -71 -147 -53 -39 -135 -38 -188 0
-36 27 -71 99 -71 148 0 54 37 124 79 152 48 32 124 32 173 -2z m-682 -633
c32 -26 38 -90 10 -124 -37 -47 -109 -35 -128 21 -29 82 54 155 118 103z"/>
<path d="M260 5068 c0 -2 -54 -390 -119 -863 -65 -473 -117 -862 -114 -865 10
-11 636 -90 715 -90 418 -1 743 218 859 579 53 165 62 380 23 526 -81 303
-336 536 -671 616 -120 28 -692 108 -693 97z m435 -114 c302 -42 435 -94 565
-224 78 -78 131 -166 167 -275 21 -66 27 -105 31 -222 13 -397 -136 -713 -399
-842 -46 -22 -113 -49 -149 -58 -101 -26 -269 -23 -505 11 -110 16 -201 29
-203 31 -2 2 196 1464 214 1578 l6 39 42 -6 c22 -3 127 -17 231 -32z"/>
<path d="M18986 5009 c-32 -5 -61 -11 -63 -13 -6 -6 -434 -1818 -431 -1821 2
-2 41 2 87 8 57 7 85 16 89 26 3 8 37 200 76 425 l71 411 279 37 c154 21 283
35 287 31 3 -5 98 -177 209 -383 112 -206 204 -377 206 -379 2 -2 42 2 89 9
58 8 85 16 83 24 -2 7 -203 378 -448 824 -297 543 -450 812 -460 811 -8 -1
-42 -5 -74 -10z m173 -480 c101 -188 179 -344 175 -348 -12 -11 -494 -74 -502
-67 -9 10 122 756 133 756 5 0 93 -154 194 -341z"/>
<path d="M2164 3944 c-56 -478 -101 -870 -100 -871 3 -3 161 -20 165 -17 6 5
206 1733 201 1738 -3 2 -41 7 -85 11 l-80 7 -101 -868z"/>
<path d="M17022 4770 c-84 -10 -155 -19 -157 -21 -2 -2 39 -391 90 -864 52
-473 95 -864 95 -868 0 -10 151 2 162 12 4 3 -34 381 -83 839 -50 458 -89 835
-87 838 12 11 190 26 265 22 189 -10 295 -128 310 -345 15 -210 -83 -334 -297
-379 -84 -17 -85 -17 -77 -39 5 -11 22 -15 69 -15 124 0 223 -42 308 -130 71
-73 105 -132 188 -322 132 -300 200 -362 392 -360 92 1 163 14 130 25 -8 2
-42 12 -74 22 -46 13 -71 28 -111 69 -60 60 -96 120 -173 293 -69 153 -120
230 -201 305 -67 62 -137 99 -223 118 -32 7 -58 16 -58 19 0 4 30 20 66 35
178 78 271 251 234 438 -32 163 -135 268 -306 312 -80 21 -259 19 -462 -4z"/>
<path d="M3233 4715 c-90 -25 -146 -57 -209 -120 -83 -82 -107 -144 -108 -280
-1 -94 1 -104 33 -169 46 -94 134 -184 320 -326 182 -138 305 -260 346 -343
37 -76 44 -173 21 -261 -81 -298 -504 -323 -808 -48 -21 19 -41 32 -44 29 -7
-7 -36 -139 -32 -143 2 -1 37 -16 78 -32 256 -101 492 -132 645 -85 209 65
325 226 325 454 0 104 -17 166 -68 245 -56 86 -124 150 -322 298 -203 152
-278 224 -317 304 -38 77 -40 192 -5 264 49 100 145 157 276 165 148 9 274
-36 378 -135 32 -30 61 -53 64 -49 8 8 23 78 24 110 0 24 -7 31 -54 53 -149
68 -423 103 -543 69z"/>
<path d="M15353 4645 c-360 -65 -629 -320 -720 -681 -28 -110 -23 -332 10
-455 92 -349 370 -603 721 -659 118 -20 311 -8 420 24 298 89 513 297 606 584
81 250 50 541 -81 764 -132 223 -362 381 -623 427 -79 14 -244 12 -333 -4z
m312 -60 c87 -18 214 -80 281 -137 174 -148 268 -352 295 -639 19 -196 -9
-366 -86 -524 -122 -250 -340 -384 -626 -385 -448 -1 -754 400 -726 950 23
450 303 746 707 749 47 0 117 -6 155 -14z"/>
<path d="M4106 4599 c-3 -17 -6 -45 -6 -62 l0 -30 138 7 c75 3 222 9 325 13
l188 6 -6 -59 c-3 -32 -30 -387 -60 -789 -30 -401 -57 -758 -60 -791 l-6 -61
83 -5 c46 -3 84 -4 86 -3 2 1 32 382 67 845 35 463 66 845 69 848 3 2 145 -23
316 -58 171 -35 312 -61 314 -59 2 2 6 30 9 61 l5 57 -41 5 c-42 6 -1368 106
-1398 106 -10 0 -19 -12 -23 -31z"/>
<path d="M5950 4466 c0 -18 -20 -410 -45 -871 -25 -461 -44 -839 -42 -840 1
-2 39 -6 83 -9 l82 -7 6 88 c5 69 86 1575 86 1600 0 3 54 3 120 -1 190 -11
288 -51 349 -143 41 -62 55 -132 49 -250 -5 -104 -25 -165 -74 -230 -51 -67
-167 -113 -290 -113 -47 0 -63 -4 -68 -16 -9 -24 2 -34 38 -34 49 0 135 -28
188 -61 119 -76 184 -194 252 -455 87 -334 149 -410 359 -434 45 -6 90 -10
100 -10 30 0 18 16 -21 29 -61 21 -129 76 -162 133 -33 58 -77 186 -110 316
-11 46 -30 106 -41 135 -30 78 -103 189 -154 236 -39 35 -133 89 -187 105 -33
10 -19 22 40 34 121 26 228 107 280 211 25 52 27 65 27 176 0 111 -2 124 -28
176 -54 111 -188 201 -347 233 -41 8 -155 20 -254 25 -254 15 -236 17 -236
-23z"/>
<path d="M12855 4457 c-104 -5 -191 -10 -192 -11 -1 -1 16 -373 37 -826 22
-454 40 -847 40 -874 l0 -49 188 7 c468 18 597 34 756 99 303 124 493 374 525
694 12 110 0 256 -29 362 -70 252 -262 457 -516 550 -171 63 -330 72 -809 48z
m604 -62 c212 -44 373 -169 467 -360 79 -160 114 -373 94 -567 -22 -215 -79
-347 -205 -474 -67 -68 -95 -89 -175 -127 -121 -58 -207 -76 -405 -87 -88 -5
-197 -12 -242 -14 -81 -5 -83 -5 -83 18 0 13 -16 351 -35 752 -19 401 -36 758
-37 794 l-3 65 105 6 c228 12 447 9 519 -6z"/>
<path d="M7546 4365 c-3 -33 -17 -379 -31 -770 -14 -390 -28 -758 -31 -817
l-7 -108 86 0 85 0 6 103 c3 56 17 413 31 792 13 380 27 727 30 772 l5 82 -84
3 -85 3 -5 -60z"/>
<path d="M11860 4403 c-1 -74 43 -1721 46 -1732 3 -11 21 -13 79 -9 42 3 78 8
82 12 6 6 -17 1050 -34 1559 l-6 187 -84 0 c-72 0 -83 -2 -83 -17z"/>
<path d="M8350 4299 c0 -57 -7 -414 -15 -794 -8 -379 -15 -726 -15 -771 l0
-81 233 -6 c398 -11 549 22 689 152 90 83 128 173 128 307 0 128 -48 237 -143
324 -44 41 -158 97 -239 116 -72 18 -78 28 -25 39 102 23 215 114 264 213 26
52 28 66 28 172 0 106 -2 120 -28 172 -54 111 -160 188 -314 230 -66 17 -115
21 -320 25 l-243 5 0 -103z m463 26 c130 -27 207 -88 249 -195 18 -45 22 -76
22 -165 0 -143 -23 -207 -99 -282 -77 -75 -141 -93 -331 -93 l-144 0 0 113 c0
61 3 230 7 375 l6 262 111 0 c61 0 142 -7 179 -15z m90 -820 c207 -55 297
-189 284 -425 -9 -168 -63 -260 -187 -322 -97 -49 -194 -62 -377 -52 l-133 7
5 346 c3 190 8 375 11 410 l6 64 166 -6 c98 -4 191 -13 225 -22z"/>
<path d="M11109 4396 c-2 -3 6 -236 18 -518 28 -662 29 -758 4 -837 -49 -159
-183 -279 -362 -326 -85 -23 -253 -23 -338 -1 -185 47 -318 186 -376 391 -14
50 -19 132 -25 475 -5 228 -9 504 -9 613 l-1 197 -86 0 -87 0 8 -582 c7 -619
11 -663 58 -790 111 -292 391 -443 759 -408 125 12 191 30 283 78 163 86 263
255 280 475 7 87 35 1007 35 1141 l0 96 -78 0 c-43 0 -81 -2 -83 -4z"/>
<path d="M13700 1838 c-75 -51 -101 -139 -66 -222 34 -81 144 -118 230 -77 61
30 91 79 91 151 0 103 -55 162 -158 168 -53 3 -67 0 -97 -20z"/>
<path d="M2990 1755 c-58 -7 -106 -13 -108 -14 -1 -1 -1 -346 0 -768 3 -715 4
-771 21 -808 57 -127 204 -184 352 -138 70 22 70 25 35 142 l-21 71 -39 0
c-74 0 -70 -46 -70 787 l0 743 -32 -1 c-18 -1 -80 -7 -138 -14z"/>
<path d="M10820 1759 c-41 -4 -94 -11 -117 -14 l-43 -6 0 -850 0 -849 140 0
140 0 0 428 0 429 49 69 c52 75 92 104 139 104 45 0 61 -9 80 -44 15 -28 17
-80 20 -509 l3 -477 140 0 139 0 0 474 c0 278 -4 495 -10 527 -20 102 -79 187
-157 224 -55 26 -140 30 -208 10 -50 -14 -70 -28 -127 -86 l-68 -69 0 325 0
325 -22 -1 c-13 -1 -57 -5 -98 -10z"/>
<path d="M8100 1650 c-25 -5 -79 -26 -120 -46 -245 -121 -372 -447 -340 -880
11 -153 22 -213 56 -315 78 -237 251 -380 479 -396 103 -7 182 8 271 52 67 33
174 116 174 135 0 5 -29 42 -65 84 l-66 74 -72 -49 c-199 -135 -383 -52 -445
201 -22 92 -35 266 -29 406 11 244 50 377 137 458 90 85 210 85 334 2 l63 -42
54 65 c87 104 84 99 57 121 -53 45 -132 92 -186 111 -66 24 -230 34 -302 19z"/>
<path d="M22 838 l3 -793 393 -3 392 -2 0 110 0 110 -247 2 -248 3 -3 238 -2
237 205 0 205 0 0 110 0 110 -205 0 -205 0 0 225 0 225 234 0 234 0 11 83 c7
45 14 94 17 110 l6 27 -396 0 -396 0 2 -792z"/>
<path d="M16549 1276 c-65 -17 -142 -79 -191 -154 -15 -23 -16 -22 -22 25 -4
26 -10 63 -13 81 l-5 32 -119 0 -119 0 0 -610 0 -611 138 3 137 3 3 428 2 428
34 52 c73 116 169 152 220 84 20 -28 21 -41 26 -510 l5 -482 138 -3 137 -3 0
495 c0 472 -1 497 -21 561 -46 151 -189 225 -350 181z"/>
<path d="M19380 1276 c-152 -34 -271 -150 -324 -316 -77 -243 -53 -573 55
-742 108 -169 306 -244 504 -193 206 54 325 225 356 514 29 269 -44 539 -175
648 -107 88 -267 122 -416 89z m192 -222 c74 -38 99 -126 105 -361 6 -202 -4
-287 -42 -370 -30 -66 -71 -93 -140 -93 -122 0 -174 92 -190 335 -7 117 7 297
30 373 36 119 135 168 237 116z"/>
<path d="M13650 650 l0 -610 140 0 140 0 0 610 0 610 -140 0 -140 0 0 -610z"/>
</g>
</svg>
